<?xml version="1.0" standalone="no"?>
<!DOCTYPE svg PUBLIC "-//W3C//DTD SVG 20010904//EN"
 "http://www.w3.org/TR/2001/REC-SVG-20010904/DTD/svg10.dtd">
<svg version="1.0" xmlns="http://www.w3.org/2000/svg"
 width="1080.000000pt" height="1080.000000pt" viewBox="0 0 1080.000000 1080.000000"
 preserveAspectRatio="xMidYMid meet">

<g transform="translate(0.000000,1080.000000) scale(0.100000,-0.100000)"
fill="#000000" stroke="none">
<path d="M3138 7158 l-3 -193 -195 -5 -195 -5 0 -205 0 -205 195 -5 195 -5 6
-225 c12 -439 10 -778 -5 -814 -54 -128 -236 -80 -236 63 l0 31 -195 0 -195 0
0 -42 c0 -66 26 -170 55 -228 76 -149 239 -244 446 -257 204 -13 383 72 470
223 52 92 56 140 63 713 4 288 9 528 12 532 3 5 87 9 187 9 100 0 188 4 195 8
9 7 12 55 10 208 l-3 199 -230 0 c-247 0 -280 -5 -336 -52 -26 -22 -34 -24
-55 -14 -72 33 -154 -16 -154 -93 0 -50 40 -133 81 -171 78 -70 109 -71 180
-3 57 55 79 102 79 169 0 48 -3 55 -40 89 l-41 38 32 11 c20 7 116 11 251 11
l218 0 -2 -187 -3 -188 -191 -3 c-155 -2 -194 -5 -204 -17 -19 -22 -365 -22
-374 0 -4 13 -36 15 -201 15 l-195 0 0 190 0 190 198 2 197 3 3 198 2 197 179
0 c136 0 181 -3 190 -13 6 -8 12 -76 14 -173 l3 -159 2 178 2 177 -205 0 -205
0 -2 -192z m169 -283 c19 -13 20 -19 12 -44 -6 -16 -9 -44 -7 -63 2 -27 7 -33
27 -33 37 0 48 26 33 82 -12 43 -11 49 5 61 23 17 72 8 98 -19 25 -24 26 -109
2 -155 -17 -31 -80 -95 -111 -112 -90 -47 -230 195 -153 265 38 35 63 40 94
18z m54 -72 c12 -31 6 -53 -15 -53 -18 0 -25 20 -19 53 7 34 21 34 34 0z"/>
<path d="M7265 6535 c-244 -54 -379 -225 -361 -459 14 -192 123 -296 421 -399
166 -58 209 -77 243 -110 27 -26 32 -38 32 -79 0 -59 -26 -90 -89 -109 -78
-23 -160 22 -181 100 l-11 41 -211 0 -211 0 7 -46 c22 -161 112 -277 268 -349
46 -21 64 -24 90 -17 18 5 53 6 78 4 40 -4 43 -3 31 12 -23 28 -6 46 44 46 41
0 45 -2 45 -25 l0 -25 156 0 c150 0 157 1 201 26 62 37 133 112 165 176 52
103 57 257 12 355 -10 21 -44 64 -75 96 -65 65 -148 108 -345 179 -193 70
-246 110 -246 182 0 75 34 106 114 106 61 0 102 -28 123 -84 l18 -46 215 0
215 0 -7 43 c-4 23 -19 74 -33 112 -51 135 -198 246 -364 274 -87 15 -269 13
-344 -4z"/>
<path d="M4225 6518 c-3 -7 -25 -69 -50 -138 -45 -124 -121 -331 -177 -485
-16 -44 -42 -116 -58 -160 -16 -44 -42 -116 -58 -160 -108 -297 -134 -367
-156 -427 l-26 -68 209 0 208 0 40 118 39 117 264 0 263 0 38 -115 38 -115
210 -3 210 -2 -19 52 c-10 29 -35 98 -55 153 -20 55 -59 163 -87 240 -27 77
-63 174 -78 215 -15 41 -53 147 -85 235 -32 88 -70 194 -85 235 -15 41 -47
130 -71 198 l-44 122 -233 0 c-177 0 -234 -3 -237 -12z m319 -657 c42 -126 76
-232 76 -235 0 -3 -72 -6 -161 -6 l-160 0 7 23 c18 59 127 395 136 420 6 15
14 27 18 27 4 0 42 -103 84 -229z"/>
<path d="M5789 6503 c-5 -16 -12 -35 -16 -43 -3 -8 -18 -49 -33 -90 -98 -270
-136 -375 -195 -535 -60 -165 -122 -335 -197 -540 -16 -44 -40 -110 -53 -147
l-24 -68 208 0 207 0 40 118 40 117 263 0 263 0 38 -115 38 -115 211 -3 210
-2 -21 57 c-11 32 -31 87 -44 123 -13 36 -53 146 -89 245 -36 99 -99 272 -140
385 -41 113 -104 286 -141 385 -36 99 -71 197 -77 218 l-11 37 -233 0 -233 0
-11 -27z m324 -642 c43 -126 77 -232 77 -235 0 -3 -72 -6 -160 -6 -93 0 -160
4 -160 9 0 6 11 40 24 78 13 37 45 136 72 218 52 165 52 165 63 165 4 0 42
-103 84 -229z"/>
<path d="M7648 5038 c-3 -29 -7 -33 -35 -36 -36 -4 -47 -32 -14 -32 37 0 51
-12 51 -41 0 -19 5 -29 15 -29 10 0 15 10 15 30 0 26 5 31 30 37 38 7 39 31 3
35 -23 2 -29 8 -31 36 -2 19 -9 32 -17 32 -8 0 -15 -13 -17 -32z"/>
<path d="M5177 5043 c-4 -3 -7 -93 -7 -200 l0 -193 40 0 40 0 0 200 0 200 -33
0 c-19 0 -37 -3 -40 -7z"/>
<path d="M5500 4851 l0 -201 40 0 40 0 0 78 c0 83 9 102 46 102 37 0 54 -36
54 -112 l0 -68 35 0 35 0 0 93 c0 89 -1 94 -28 120 -32 31 -84 36 -119 12
l-22 -16 -3 93 -3 93 -37 3 -38 3 0 -200z"/>
<path d="M5936 5026 c-51 -19 -86 -45 -113 -85 -62 -92 -22 -226 84 -276 44
-21 149 -23 185 -4 25 13 26 15 13 46 -12 28 -18 32 -42 27 -106 -21 -171 14
-180 97 -4 38 -1 50 22 77 33 40 91 57 142 43 43 -12 48 -10 61 28 9 25 7 30
-14 39 -42 20 -117 23 -158 8z"/>
<path d="M2640 4840 l0 -190 40 0 40 0 0 70 0 70 40 0 c47 0 115 31 130 59 18
35 12 115 -11 140 -31 33 -61 41 -155 41 l-84 0 0 -190z m144 120 c59 -22 36
-100 -31 -100 -33 0 -33 0 -33 48 0 65 10 73 64 52z"/>
<path d="M3190 5015 c-17 -20 -5 -62 21 -70 24 -8 59 19 59 45 0 37 -55 55
-80 25z"/>
<path d="M4210 4840 l0 -190 40 0 40 0 0 80 0 81 63 -3 62 -3 3 -77 3 -78 39
0 40 0 0 190 0 190 -40 0 -40 0 0 -75 0 -75 -65 0 -65 0 0 75 0 75 -40 0 -40
0 0 -190z"/>
<path d="M5330 4931 c0 -30 -4 -40 -20 -44 -13 -3 -20 -14 -20 -30 0 -16 7
-26 20 -30 17 -4 20 -14 20 -70 0 -84 18 -110 78 -110 24 0 45 3 49 6 11 12
-7 55 -27 60 -17 4 -20 13 -20 61 0 49 3 56 19 56 11 0 23 5 26 10 11 18 -6
50 -26 50 -16 0 -19 7 -19 40 l0 40 -40 0 c-40 0 -40 0 -40 -39z"/>
<path d="M2957 4883 c-4 -3 -7 -57 -7 -120 l0 -113 34 0 34 0 4 71 c4 83 27
113 77 103 22 -5 29 -1 39 21 7 15 10 31 7 36 -10 15 -67 10 -88 -8 -18 -17
-19 -17 -32 0 -12 17 -55 23 -68 10z"/>
<path d="M3188 4801 c-1 -50 -2 -103 -2 -118 -1 -25 3 -28 37 -31 l38 -3 -3
118 -3 118 -32 3 -33 3 -2 -90z"/>
<path d="M3330 4770 l0 -120 35 0 35 0 0 71 c0 81 11 109 43 109 38 0 47 -19
47 -102 l0 -78 40 0 40 0 0 78 c0 83 9 102 47 102 32 0 43 -28 43 -109 l0 -71
35 0 35 0 0 99 c0 96 -1 100 -26 120 -33 26 -84 27 -116 2 -23 -19 -24 -19
-48 0 -29 21 -81 25 -111 7 -17 -10 -23 -10 -26 0 -3 6 -20 12 -39 12 l-34 0
0 -120z"/>
<path d="M3820 4854 c-36 -33 -40 -41 -40 -84 0 -86 74 -141 163 -120 36 8 77
35 77 50 0 4 -10 12 -22 17 -17 8 -30 7 -50 -5 -36 -21 -82 -7 -86 26 -3 21
-1 22 82 22 80 0 86 1 86 20 0 31 -26 75 -54 94 -14 9 -45 16 -71 16 -38 0
-51 -6 -85 -36z m128 -36 c3 -15 -4 -18 -42 -18 -33 0 -46 4 -46 14 0 30 82
34 88 4z"/>
<path d="M4594 4857 c-61 -55 -55 -149 11 -193 36 -23 120 -22 153 3 35 26 37
38 9 50 -17 8 -28 7 -42 -3 -26 -19 -59 -17 -78 4 -32 35 -21 42 68 42 l85 0
0 31 c0 23 -10 41 -36 65 -30 29 -42 34 -85 34 -42 0 -55 -5 -85 -33z m124
-39 c3 -15 -4 -18 -42 -18 -25 0 -46 4 -46 8 0 34 82 42 88 10z"/>
<path d="M4874 4856 c-30 -30 -34 -40 -34 -89 0 -93 65 -142 151 -113 22 8 39
10 39 5 0 -5 18 -9 40 -9 l41 0 -3 118 -3 117 -28 3 c-16 2 -34 -2 -42 -8 -10
-8 -19 -8 -34 -1 -41 22 -91 13 -127 -23z m134 -42 c41 -29 20 -104 -29 -104
-39 0 -59 19 -59 55 0 33 27 65 55 65 6 0 21 -7 33 -16z"/>
<path d="M6185 4855 c-30 -31 -35 -42 -35 -82 0 -96 67 -148 154 -118 25 9 42
11 44 5 2 -6 19 -10 38 -10 l34 0 0 120 0 120 -34 0 c-19 0 -36 -6 -39 -12 -3
-10 -9 -10 -26 0 -11 6 -39 12 -61 12 -32 0 -46 -7 -75 -35z m142 -47 c41 -39
18 -98 -38 -98 -56 0 -82 73 -37 104 30 21 47 20 75 -6z"/>
<path d="M6485 4828 c-4 -35 -5 -88 -3 -118 l3 -55 38 -3 37 -3 0 68 c1 82 15
105 65 107 36 1 55 17 55 49 0 22 -56 23 -84 2 -25 -19 -36 -19 -36 0 0 10
-10 15 -34 15 l-34 0 -7 -62z"/>
<path d="M6758 4865 c-117 -79 -27 -248 115 -215 51 11 81 38 65 57 -11 14
-24 14 -90 -2 -19 -5 -32 -1 -47 14 -12 12 -19 26 -16 31 4 6 44 10 91 10 46
0 84 3 84 8 0 4 -5 24 -10 44 -21 74 -121 102 -192 53z m110 -37 c21 -21 13
-28 -33 -28 -43 0 -58 14 -38 33 11 11 58 8 71 -5z"/>
<path d="M7090 4795 l0 -25 380 0 380 0 0 25 0 25 -380 0 -380 0 0 -25z"/>
<path d="M7220 4670 c-26 -26 -27 -90 -2 -113 55 -50 136 -15 136 58 0 27 -6
43 -23 56 -31 25 -86 24 -111 -1z m91 -36 c14 -17 5 -40 -24 -58 -13 -8 -22
-6 -38 10 -17 18 -19 25 -10 43 14 25 53 28 72 5z"/>
<path d="M7609 4671 c-56 -45 -6 -151 65 -137 50 10 71 41 67 99 -3 51 -86 75
-132 38z m91 -40 c14 -28 -18 -66 -48 -57 -26 9 -38 42 -22 61 18 21 57 18 70
-4z"/>
</g>
</svg>
